<svg width="1920" height="728" viewBox="0 0 1920 728" fill="none" xmlns="http://www.w3.org/2000/svg">
<g clip-path="url(#clip0_2016_248)">
<rect width="1920" height="728" fill="#EDEAE5"/>
<path d="M868.295 110.515C874.228 94.0591 878.713 76.9633 880.291 59.4982C881.853 42.1661 880.433 24.464 874.938 7.89499C872.752 1.30598 869.926 -5.08235 866.401 -11.058C865.933 -12.3458 865.378 -13.6104 864.725 -14.828C869.309 -13.0663 873.842 -11.1591 878.316 -9.11572C882.895 -3.27371 883.755 4.44461 884.055 11.6988C884.385 19.7576 884.714 27.7571 885.698 35.7688C887.767 52.4366 891.656 68.7602 896.016 84.9554C898.506 94.1784 901.19 103.34 903.828 112.522C904.036 113.247 905.042 113.361 905.318 112.619C908.425 104.513 911.487 96.368 913.417 87.8919C915.237 79.9083 915.821 71.8254 915.023 63.6677C913.347 46.5417 906.202 30.4387 897.236 15.9279C892.795 8.74501 888.011 1.68069 882.829 -5.02708C882.426 -5.94445 881.959 -6.82734 881.437 -7.6664C892.001 -2.65003 902.193 3.13912 911.903 9.6371C919.335 20.5976 918.759 34.6597 918.99 47.4283C919.251 61.4822 921.385 75.3755 923.473 89.2461C924.733 97.6285 926.045 106 927.416 114.371C927.501 114.921 928.285 114.923 928.462 114.439C933.475 100.839 936.591 86.1994 936.541 71.6651C936.481 56.7923 933.323 41.8811 926.732 28.5016C924.032 23.0223 920.782 17.8388 916.954 13.1081C917.467 13.4737 917.981 13.8228 918.493 14.1884C932.561 24.3094 945.399 36.0266 956.816 49.022C947.507 67.9441 942.219 88.7369 941.298 109.823C941.034 115.896 941.14 121.98 941.576 128.044C941.625 128.683 942.681 128.878 942.967 128.323C952.961 108.91 960.137 87.6296 959.834 65.5772C959.764 60.5938 959.237 55.6225 958.271 50.7245C964.955 58.466 971.122 66.6424 976.764 75.1852C971.656 83.8661 967.135 92.7785 963.818 102.326C960.348 112.31 958.149 122.727 957.176 133.25C956.624 139.262 956.729 145.211 956.8 151.232C956.812 151.899 957.663 152.255 958.064 151.655C961.002 147.382 963.335 142.606 965.531 137.922C967.775 133.11 969.74 128.171 971.414 123.13C974.722 113.168 976.93 102.744 977.778 92.2731C978.189 87.2132 978.301 82.1171 977.997 77.0463C978.898 78.4457 979.79 79.8524 980.663 81.2737C984.335 87.2249 987.773 93.3587 990.961 99.6138C989.472 104.315 986.925 108.627 984.891 113.094C982.753 117.793 980.861 122.614 979.158 127.484C975.785 137.151 973.23 147.094 971.517 157.19C970.532 163.015 969.713 168.936 969.519 174.849C969.502 175.538 970.37 175.821 970.766 175.27C977.062 166.741 981.129 156.56 984.474 146.569C987.728 136.845 990.051 126.798 991.303 116.612C991.89 111.835 992.194 107.04 992.279 102.236C992.578 102.829 992.842 103.434 993.131 104.034C994.716 108.973 995.602 113.98 995.945 119.215C996.348 125.141 996.14 131.094 996.053 137.028C995.859 149.754 995.989 162.797 998.072 175.377C999.19 182.157 1001.15 188.803 1004.38 194.886C1004.77 195.608 1005.72 195.31 1005.84 194.583C1009.48 173.733 1010.66 151.675 1005.14 131.038C1003.83 126.192 1002.15 121.553 999.956 117.079C997.971 111.822 995.834 106.638 993.474 101.554C1004.73 116.268 1019.75 127.785 1034.78 138.411C1039.47 141.728 1044.35 144.824 1048.95 148.274C1049.47 148.675 1050.17 148.009 1049.88 147.451C1045.21 138.301 1038.66 129.673 1031.2 122.63C1023.99 115.837 1015.68 110.385 1007.07 105.531C1002.24 102.794 997.281 100.271 992.342 97.7492C992.269 97.6561 992.189 97.5536 992.116 97.4604C991.904 97.1902 991.638 97.158 991.406 97.2647C989.398 93.1679 987.283 89.1254 984.992 85.146C983.064 81.7839 981.052 78.4876 978.96 75.2238C986.786 78.6264 993.286 84.3305 999.966 89.5335C1007.56 95.4631 1015.9 100.16 1024.25 104.932C1029.02 107.67 1033.9 110.42 1038.22 113.845C1038.67 114.202 1039.31 113.597 1039.05 113.126C1034.35 104.665 1027.14 97.2215 1019.65 91.2043C1011.93 84.9887 1003.14 80.0789 993.791 76.7608C988.544 74.902 983.071 73.6565 977.554 72.9116C977.514 72.8982 977.478 72.9108 977.443 72.9234C972.28 65.088 966.659 57.5513 960.606 50.3837C964.286 52.6429 967.95 54.9 971.772 56.8981C976.792 59.522 981.918 61.9565 987.121 64.181C992.347 66.4169 997.676 68.4374 1003.07 70.2386C1008.66 72.1046 1014.34 73.6203 1019.97 75.348C1026.55 77.3774 1032.61 80.4221 1038.75 83.4696C1039.44 83.8055 1039.88 82.8394 1039.51 82.3549C1031.87 72.5497 1020.99 65.9106 1009.79 60.8842C1003.95 58.2539 997.948 56.0418 991.92 53.8774C986.579 51.9566 981.213 50.041 975.71 48.6233C969.724 47.0879 963.561 46.2478 957.384 46.6371C953.278 41.9738 948.965 37.4878 944.49 33.1592C955.272 36.1699 966.023 39.2949 977.13 40.8779C983.066 41.7157 989.097 42.1773 995.096 41.9434C1001.06 41.7055 1006.92 40.7215 1012.81 39.7654C1019.76 38.6351 1026.77 37.4537 1033.81 38.2657C1034.28 38.3221 1034.52 37.6256 1034.12 37.3831C1028.84 34.2389 1023 31.9711 1017.19 30.0603C1011.33 28.1362 1005.31 26.6892 999.222 25.7149C986.88 23.7461 974.171 23.6299 961.844 25.7103C955.362 26.8046 949.021 28.6158 942.871 30.9392C942.806 30.9145 942.74 30.9064 942.675 30.8817C942.48 30.8243 942.3 30.8447 942.15 30.9024C933.726 22.9752 924.733 15.645 915.231 9.02892C925.54 12.1846 936.425 13.4455 947.174 12.6916C959.879 11.8038 971.659 7.35519 983.951 4.44435C990.801 2.82128 998.553 1.19799 1005.55 2.6455C1006.27 2.79133 1006.65 1.83371 1005.93 1.53628C1000.23 -0.807865 993.913 -2.05439 987.844 -3.0433C981.601 -4.06169 975.29 -4.51502 968.974 -4.43779C962.894 -4.36557 956.817 -3.82928 950.819 -2.82813C944.466 -1.76027 938.317 0.0658425 932.195 2.02161C925.547 4.13297 918.772 6.25411 911.767 6.45017C911.573 6.37613 911.369 6.32603 911.175 6.25199C903.248 0.973625 895.01 -3.81977 886.513 -8.07959C884.947 -8.86809 883.361 -9.62536 881.782 -10.3733C907.807 -6.37426 936.428 -7.92903 959.385 -21.8742C966.548 -26.2249 973.182 -31.7697 979.199 -37.5832C979.647 -38.0095 979.449 -38.9526 978.732 -38.9468C965.357 -38.7221 951.927 -37.2814 939.074 -33.4352C932.617 -31.5031 926.334 -28.985 920.31 -25.9633C913.566 -22.5735 907.103 -18.5763 900.095 -15.7161C896.716 -14.3467 893.19 -13.3578 889.58 -12.8596C887.384 -12.5525 885.167 -12.4841 882.951 -12.5673C880.725 -12.6432 878.443 -12.5237 876.274 -13.0649C874.186 -13.5795 872.323 -14.6909 870.358 -15.5277C868.217 -16.4366 865.991 -17.204 863.814 -18.0245C863.661 -18.0852 863.516 -18.1366 863.37 -18.188C868.583 -21.19 874.569 -22.0915 880.415 -23.1533C886.416 -24.2469 892.285 -25.8539 897.999 -27.9857C909.632 -32.3342 920.436 -38.6211 930.81 -45.382C936.724 -49.2349 942.538 -53.2349 948.445 -57.0972C949.131 -57.5451 948.816 -58.5614 947.961 -58.4627C935.109 -56.9183 922.18 -54.1099 909.839 -50.2437C897.855 -46.4775 886.249 -41.3671 875.916 -34.1713C870.096 -30.1215 864.298 -25.4872 861.012 -19.0473C858.113 -20.0987 855.2 -21.1097 852.27 -22.0468C848.283 -23.3144 844.304 -24.5726 840.149 -25.0764C839.102 -25.2034 838.912 -23.7003 839.803 -23.3309C843.264 -21.9077 846.867 -20.9565 850.434 -19.841C853.838 -18.779 857.215 -17.6358 860.568 -16.4282C860.996 -16.2668 861.423 -16.1053 861.843 -15.9532C862.893 -14.325 863.899 -12.6768 864.851 -11.0014C866.831 -5.42397 867.222 0.736606 866.847 6.61034C866.289 15.3202 864.404 23.9114 863.427 32.5876C861.555 49.1401 861.347 65.8775 862.774 82.4759C863.584 91.8577 864.98 101.142 866.836 110.381C866.979 111.081 867.984 111.135 868.225 110.465L868.295 110.515ZM894.028 13.7345C898.773 21.1903 903.139 28.929 906.577 37.078C912.903 52.0782 916.001 68.466 912.895 84.6161C911.208 93.3831 907.959 101.75 904.685 110.046C899.806 94.3782 895.112 78.6399 891.636 62.5941C889.839 54.332 888.328 45.9953 887.324 37.5933C886.321 29.1747 886.048 20.7855 885.793 12.3226C885.668 8.13374 885.415 3.68474 884.377 -0.480028C887.634 4.23204 890.954 8.9096 894.026 13.7511L894.028 13.7345ZM949.492 110.26C947.543 115.277 945.321 120.176 942.932 124.996C941.829 104.609 944.878 83.9917 951.711 64.7692C953.349 60.1616 955.214 55.6321 957.253 51.1913C960.142 71.247 956.81 91.4252 949.499 110.269L949.492 110.26ZM974.521 105.369C972.542 115.568 969.391 125.557 965.179 135.055C963.077 139.8 960.569 144.277 958.073 148.806C957.903 144.291 958.156 139.701 958.521 135.234C958.941 130.032 959.662 124.85 960.704 119.731C962.758 109.609 965.953 99.6758 970.245 90.2804C972.312 85.7585 974.626 81.3426 977.294 77.1465C977.047 86.6194 976.343 96.0452 974.528 105.378L974.521 105.369ZM978.651 158.367C976.544 163.221 974.234 168.085 971.192 172.455C972.289 162.992 973.575 153.637 975.881 144.355C978.36 134.411 981.682 124.678 985.804 115.296C987.677 111.046 989.973 106.855 991.592 102.473C990.496 121.666 986.304 140.728 978.641 158.374L978.651 158.367ZM1016.88 113.052C1025.19 118.613 1032.67 125.194 1038.86 133.079C1042.02 137.113 1044.72 141.395 1047.37 145.755C1043.94 143.552 1040.6 141.174 1037.27 138.855C1033.24 136.057 1029.23 133.193 1025.32 130.231C1017.37 124.217 1009.76 117.653 1002.94 110.376C999.802 107.018 996.796 103.509 993.974 99.8696C1001.76 103.976 1009.55 108.149 1016.88 113.052ZM1006.55 144.895C1007.92 155.458 1007.79 166.167 1006.77 176.76C1006.27 181.919 1005.54 187.05 1004.7 192.168C999.382 181.404 998.467 168.991 997.939 157.148C997.641 150.568 997.562 143.982 997.676 137.411C997.78 131.479 998.004 125.528 997.644 119.598C997.487 116.999 997.184 114.349 996.7 111.735C998.693 116.235 1000.54 120.801 1002.24 125.4C1004.22 131.771 1005.69 138.29 1006.56 144.904L1006.55 144.895ZM1028.24 100.854C1031.34 104.199 1033.99 107.792 1036.58 111.495C1028.96 106.743 1021.14 102.371 1013.44 97.7276C1009.24 95.2025 1005.19 92.4515 1001.33 89.4288C997.694 86.5766 994.177 83.587 990.474 80.8191C987.103 78.3023 983.559 76.026 979.748 74.2906C998.189 77.6905 1015.47 87.1134 1028.24 100.854ZM989.488 54.1137C1000.99 58.2483 1012.67 62.4735 1022.93 69.2321C1027.93 72.5195 1032.51 76.3795 1036.46 80.8471C1031.98 78.7352 1027.41 76.7814 1022.72 75.1759C1017.21 73.2941 1011.57 71.8343 1006.06 69.9764C995.175 66.3213 984.553 61.7869 974.371 56.4711C968.892 53.606 963.379 50.7369 958.19 47.3588C968.98 47.0398 979.446 50.4929 989.481 54.1044L989.488 54.1137ZM1014.73 30.5885C1020.62 32.391 1026.2 34.83 1031.78 37.3615C1026.59 37.4481 1021.39 37.9138 1016.25 38.6148C1010.18 39.4304 1004.12 40.4494 998.001 40.719C985.995 41.2699 974.065 39.3089 962.448 36.4415C956.513 34.9714 950.61 33.3111 944.763 31.5312C967.338 24.2769 992.012 23.6348 1014.73 30.5885ZM947.544 -0.366811C959.867 -2.70048 972.305 -3.12315 984.776 -1.66152C990.438 -1.00022 995.886 0.309731 1001.37 1.64964C996.836 1.79093 992.363 2.1085 987.83 2.98382C981.674 4.16828 975.639 5.8901 969.579 7.46563C963.572 9.03059 957.524 10.5064 951.351 11.2081C944.93 11.9388 938.432 11.9181 932.01 11.19C925.729 10.4874 919.563 9.04829 913.572 7.06548C925.187 6.89709 936.239 1.76999 947.553 -0.374125L947.544 -0.366811ZM932.019 47.9712C935.428 61.8587 935.648 76.4557 933.489 90.5704C932.381 97.8308 930.533 104.934 928.173 111.882C926.29 97.792 924.057 83.735 922.379 69.6189C921.519 62.3813 920.891 55.1127 920.746 47.8268C920.607 40.8368 920.822 33.78 919.766 26.8473C919.1 22.4662 917.855 18.0572 915.836 14.0601C923.441 24.1478 928.985 35.6551 932 47.9857L932.019 47.9712ZM915.907 -22.197C928.295 -28.958 941.459 -33.9049 955.399 -36.2871C962.503 -37.5083 969.638 -37.9415 976.8 -37.4778C971.55 -32.9878 966.53 -28.3013 960.724 -24.5028C955.027 -20.7753 948.826 -17.8256 942.385 -15.6049C929.626 -11.216 916.075 -9.68039 902.644 -9.96839C897.489 -10.0792 892.353 -10.4912 887.225 -11.0288C897.406 -11.9695 906.941 -17.306 915.907 -22.197ZM875.346 -31.694C880.441 -35.4017 885.92 -38.5823 891.605 -41.3079C902.983 -46.7663 915.159 -50.3827 927.466 -53.0641C933.373 -54.3546 939.32 -55.3452 945.26 -56.4209C926.215 -42.2628 905.102 -28.9795 881.458 -24.7384C875.278 -23.6245 868.864 -22.8845 863.258 -19.9048C866.316 -24.6775 870.779 -28.386 875.329 -31.696L875.346 -31.694ZM863.532 58.8404C863.616 50.2922 864.121 41.7445 865.085 33.2439C866.062 24.492 867.99 15.8217 868.575 7.03071C868.849 2.96598 868.726 -1.16374 868.004 -5.15524C873.48 6.01489 876.966 18.0821 878.511 30.5126C880.648 47.7283 879.054 65.2506 875.23 82.1145C873.286 90.7069 870.744 99.151 867.83 107.466C864.822 91.4597 863.397 75.1145 863.542 58.8331L863.532 58.8404Z" fill="#7F694F"/>
<path d="M147.724 96.4854C159.905 83.9299 171.029 70.1955 179.656 54.9282C188.214 39.7753 194.206 23.0578 196.018 5.69561C196.738 -1.20909 196.792 -8.19427 196.039 -15.0912C196.143 -16.4574 196.158 -17.8383 196.063 -19.2169C199.516 -15.7245 202.862 -12.1207 206.098 -8.41677C207.866 -1.20809 205.473 6.18008 202.761 12.9151C199.745 20.3952 196.751 27.8209 194.351 35.5277C189.376 51.5694 186.201 68.0469 183.508 84.6012C181.982 94.0318 180.656 103.486 179.282 112.94C179.172 113.686 180.043 114.204 180.599 113.641C186.768 107.533 192.911 101.37 198.159 94.4401C203.103 87.9132 206.962 80.7871 209.593 73.0239C215.115 56.7263 215.231 39.1096 213.033 22.1946C211.942 13.8204 210.49 5.41298 208.528 -2.83305C208.538 -3.83502 208.477 -4.83159 208.346 -5.81122C215.909 3.10875 222.815 12.5799 228.989 22.4986C231.251 35.5464 224.938 48.1253 219.893 59.8571C214.346 72.7724 210.573 86.3129 206.765 99.8131C204.463 107.971 202.213 116.141 200.018 124.334C199.869 124.87 200.582 125.195 200.943 124.826C211.11 114.495 219.975 102.436 225.912 89.1695C231.979 75.5904 235.238 60.701 234.739 45.7947C234.534 39.6898 233.706 33.6281 232.164 27.7411C232.481 28.2852 232.805 28.8149 233.122 29.3589C241.777 44.3734 248.654 60.3361 253.71 76.8792C237.437 90.292 224.06 107.065 214.541 125.903C211.801 131.329 209.393 136.917 207.294 142.624C207.076 143.226 207.958 143.839 208.448 143.45C225.546 129.872 240.845 113.431 249.646 93.2091C251.634 88.6386 253.199 83.891 254.335 79.0296C257.24 88.836 259.495 98.8261 261.121 108.934C252.892 114.743 245.103 121.004 238.151 128.34C230.879 136.011 224.587 144.599 219.369 153.789C216.391 159.042 214.038 164.506 211.625 170.022C211.361 170.636 211.989 171.31 212.603 170.928C217.039 168.244 221.131 164.851 225.06 161.486C229.086 158.025 232.91 154.332 236.51 150.426C243.625 142.709 249.928 134.118 255.011 124.925C257.469 120.482 259.668 115.884 261.478 111.138C261.724 112.784 261.957 114.433 262.168 116.088C263.065 123.023 263.674 130.028 264.004 137.041C260.711 140.713 256.616 143.594 252.923 146.828C249.041 150.23 245.332 153.845 241.776 157.582C234.722 165.004 228.301 173.014 222.584 181.51C219.289 186.413 216.105 191.472 213.495 196.781C213.196 197.403 213.871 198.017 214.458 197.678C223.706 192.497 231.604 184.892 238.765 177.164C245.733 169.641 251.985 161.44 257.319 152.673C259.821 148.561 262.071 144.316 264.126 139.973C264.154 140.636 264.146 141.296 264.163 141.963C263.574 147.116 262.32 152.043 260.478 156.956C258.406 162.523 255.767 167.863 253.245 173.235C247.83 184.752 242.58 196.693 239.3 209.015C237.528 215.654 236.578 222.518 237.021 229.393C237.075 230.209 238.068 230.331 238.478 229.718C250.371 212.212 260.528 192.596 263.987 171.514C264.796 166.562 265.174 161.643 265.013 156.661C265.368 151.052 265.554 145.449 265.496 139.844C269.702 157.888 278.642 174.563 287.971 190.436C290.881 195.39 294.052 200.219 296.823 205.256C297.136 205.838 298.045 205.517 298.013 204.891C297.519 194.628 295.1 184.068 291.201 174.579C287.432 165.423 282.094 157.03 276.253 149.065C272.971 144.58 269.494 140.241 266.03 135.91C266.002 135.795 265.971 135.669 265.943 135.554C265.861 135.22 265.632 135.081 265.376 135.083C265.233 130.523 264.969 125.968 264.519 121.398C264.146 117.541 263.669 113.709 263.106 109.873C268.837 116.195 272.414 124.069 276.36 131.561C280.841 140.091 286.511 147.805 292.15 155.588C295.377 160.05 298.69 164.564 301.221 169.464C301.48 169.974 302.311 169.685 302.264 169.147C301.472 159.506 297.958 149.751 293.615 141.187C289.13 132.341 283.148 124.252 275.99 117.378C271.973 113.525 267.498 110.137 262.777 107.187C262.745 107.158 262.708 107.155 262.67 107.152C261.19 97.8862 259.17 88.7039 256.603 79.68C259.028 83.2539 261.438 86.8191 264.099 90.2132C267.593 94.6705 271.263 98.9993 275.089 103.168C278.932 107.357 282.956 111.392 287.134 115.255C291.454 119.254 296.011 122.975 300.427 126.865C305.591 131.424 309.857 136.692 314.206 142C314.692 142.588 315.496 141.891 315.349 141.293C312.423 129.213 305.246 118.687 297.105 109.494C292.869 104.695 288.306 100.207 283.704 95.7532C279.627 91.8044 275.525 87.8497 271.093 84.2927C266.27 80.4295 260.999 77.1271 255.209 74.9393C253.387 68.9994 251.303 63.1358 249.006 57.3488C257.593 64.5306 266.105 71.8039 275.575 77.8183C280.64 81.025 285.947 83.9285 291.51 86.1843C297.044 88.4227 302.791 89.9385 308.546 91.4888C315.346 93.3195 322.225 95.1304 328.31 98.7695C328.711 99.0124 329.213 98.4749 328.948 98.089C325.433 93.0516 321.046 88.5818 316.534 84.4473C311.99 80.2839 307.098 76.4865 301.951 73.0927C291.513 66.2185 279.978 60.8811 267.888 57.7032C261.53 56.0325 255.005 55.0731 248.444 54.659C248.395 54.6099 248.338 54.5752 248.289 54.5262C248.135 54.3934 247.963 54.3381 247.802 54.3288C243.388 43.637 238.209 33.2549 232.273 23.3143C240.369 30.4336 249.77 36.0629 259.877 39.8004C271.821 44.2208 284.387 45.0149 296.788 47.4219C303.699 48.7621 311.432 50.4734 317.216 54.6739C317.808 55.1015 318.546 54.3841 318.018 53.819C313.785 49.3355 308.542 45.5997 303.418 42.2003C298.148 38.7027 292.583 35.6918 286.795 33.1622C281.224 30.7256 275.465 28.713 269.586 27.1563C263.357 25.5149 257.002 24.6481 250.617 23.9104C243.69 23.0984 236.642 22.2428 230.177 19.538C230.031 19.3909 229.865 19.261 229.719 19.1139C224.668 11.0407 219.133 3.2811 213.142 -4.09865C212.04 -5.46163 210.906 -6.80465 209.775 -8.13617C231.847 6.22061 258.571 16.5844 285.233 13.3244C293.552 12.3079 301.88 9.98517 309.757 7.16366C310.34 6.95955 310.548 6.01874 309.892 5.72869C297.61 0.42818 284.778 -3.78664 271.481 -5.5717C264.801 -6.46868 258.038 -6.7602 251.304 -6.48601C243.763 -6.17235 236.228 -5.18971 228.664 -5.46761C225.021 -5.61025 221.4 -6.16049 217.905 -7.19251C215.777 -7.81646 213.728 -8.66687 211.743 -9.65481C209.746 -10.6399 207.617 -11.4706 205.863 -12.8566C204.172 -14.1849 202.931 -15.9648 201.485 -17.536C199.908 -19.2456 198.195 -20.8611 196.549 -22.505C196.435 -22.6233 196.323 -22.73 196.212 -22.8367C202.198 -23.4272 208.024 -21.7847 213.789 -20.3463C219.708 -18.8728 225.719 -17.9214 231.804 -17.5123C244.195 -16.6873 256.63 -17.9696 268.866 -19.8615C275.842 -20.9385 282.787 -22.1908 289.761 -23.2794C290.571 -23.4049 290.702 -24.4609 289.882 -24.723C277.533 -28.6055 264.594 -31.368 251.756 -32.9242C239.284 -34.4241 226.603 -34.5441 214.224 -32.2394C207.253 -30.9442 200.061 -29.1073 194.416 -24.5904C192.207 -26.7422 189.968 -28.8625 187.683 -30.9227C184.572 -33.7187 181.464 -36.5032 177.884 -38.6726C176.982 -39.2193 176.19 -37.928 176.85 -37.2245C179.419 -34.5026 182.311 -32.1526 185.102 -29.668C187.768 -27.2989 190.375 -24.8669 192.934 -22.3863C193.257 -22.0633 193.58 -21.7403 193.9 -21.4287C194.187 -19.5124 194.425 -17.5963 194.603 -15.6776C194.112 -9.77965 191.933 -4.0041 189.173 1.19463C185.079 8.9025 179.825 15.9563 175.364 23.4615C166.844 37.7762 159.765 52.9442 154.234 68.6589C151.111 77.5426 148.561 86.578 146.45 95.7619C146.292 96.4589 147.185 96.9223 147.681 96.4106L147.724 96.4854ZM211.012 18.8751C212.268 27.6233 213.061 36.4728 212.84 45.3149C212.432 61.5894 208.509 77.7995 199.032 91.2398C193.885 98.5353 187.481 104.823 181.082 111.036C183.084 94.7487 185.284 78.4736 188.721 62.4193C190.484 54.1497 192.539 45.9303 195.081 37.8595C197.633 29.7743 200.837 22.0165 204.088 14.1987C205.699 10.3299 207.299 6.17103 208.068 1.94818C209.096 7.58306 210.196 13.2125 211.003 18.8895L211.012 18.8751ZM221.828 129.674C217.987 133.444 213.946 136.995 209.785 140.404C217.171 121.37 228.436 103.835 242.576 89.1292C245.965 85.6043 249.529 82.2438 253.215 79.036C247.593 98.5029 236.25 115.521 221.831 129.686L221.828 129.674ZM246.652 135.519C240.651 143.999 233.668 151.806 225.919 158.728C222.05 162.188 217.923 165.236 213.783 168.335C215.487 164.151 217.607 160.072 219.778 156.151C222.302 151.583 225.092 147.157 228.149 142.921C234.187 134.542 241.187 126.804 248.966 120.008C252.711 116.737 256.638 113.666 260.796 110.939C256.672 119.471 252.15 127.771 246.655 135.53L246.652 135.519ZM228.601 185.519C224.684 189.076 220.577 192.558 216.005 195.288C220.9 187.115 225.922 179.119 231.845 171.609C238.197 163.566 245.231 156.064 252.85 149.21C256.306 146.108 260.123 143.234 263.402 139.906C254.503 156.947 242.837 172.594 228.59 185.522L228.601 185.519ZM282.093 159.956C287.381 168.446 291.483 177.52 293.883 187.255C295.104 192.234 295.796 197.244 296.417 202.309C294.201 198.891 292.138 195.35 290.052 191.864C287.533 187.655 285.063 183.397 282.713 179.086C277.946 170.334 273.712 161.219 270.496 151.781C269.013 147.428 267.718 142.992 266.644 138.514C272.054 145.463 277.429 152.47 282.093 159.956ZM259.573 184.725C256.478 194.918 251.947 204.622 246.654 213.855C244.076 218.351 241.297 222.725 238.433 227.048C238.013 215.048 242.288 203.358 246.682 192.347C249.118 186.228 251.758 180.193 254.566 174.251C257.103 168.888 259.756 163.557 261.869 158.005C262.795 155.571 263.611 153.031 264.245 150.45C264.209 155.371 264.015 160.294 263.665 165.182C262.852 171.805 261.508 178.351 259.576 184.736L259.573 184.725ZM297.468 153.516C298.918 157.84 299.855 162.206 300.688 166.645C295.7 159.178 290.374 151.977 285.268 144.575C282.475 140.543 279.916 136.368 277.644 132.026C275.506 127.931 273.532 123.759 271.297 119.712C269.26 116.03 266.968 112.497 264.208 109.347C279.616 120.036 291.486 135.737 297.468 153.516ZM281.39 94.9677C290.166 103.468 299.08 112.13 305.648 122.513C308.85 127.566 311.43 132.966 313.193 138.665C309.977 134.895 306.617 131.234 303.006 127.841C298.763 123.86 294.223 120.208 289.96 116.244C281.548 108.434 273.734 99.9292 266.642 90.8936C262.828 86.0272 258.986 81.1434 255.647 75.9289C265.611 80.0792 273.729 87.5345 281.387 94.9562L281.39 94.9677ZM314.076 83.9166C318.706 87.9856 322.788 92.5058 326.83 97.109C322.059 95.0492 317.129 93.3332 312.16 91.8581C306.293 90.1035 300.351 88.538 294.662 86.2644C283.493 81.8245 273.428 75.127 264.021 67.732C259.218 63.9493 254.521 60.0063 249.925 55.9777C273.485 58.6585 296.236 68.2293 314.076 83.9166ZM265.588 28.0515C277.78 30.9973 289.29 35.7316 300.053 42.1967C304.941 45.1299 309.367 48.5664 313.816 52.046C309.624 50.3074 305.416 48.7554 300.924 47.6873C294.827 46.2331 288.618 45.3181 282.447 44.2598C276.327 43.2131 270.209 42.0689 264.294 40.1676C258.141 38.1905 252.227 35.4968 246.675 32.1902C241.24 28.9646 236.213 25.1149 231.569 20.842C242.223 25.4691 254.406 25.3456 265.6 28.0487L265.588 28.0515ZM231.544 65.7147C228.934 79.7743 223.126 93.1679 215.349 105.143C211.351 111.304 206.743 117.017 201.732 122.378C205.815 108.761 209.566 95.0309 213.847 81.4754C216.043 74.5256 218.463 67.6429 221.329 60.9431C224.08 54.5154 227.18 48.1726 229.071 41.4196C230.267 37.1527 230.948 32.6223 230.753 28.1482C233.531 40.472 233.847 53.2413 231.521 65.7203L231.544 65.7147ZM245.741 -4.86577C259.815 -5.92826 273.847 -5.01846 287.532 -1.45156C294.51 0.359767 301.191 2.9019 307.527 6.27224C300.894 8.20353 294.39 10.4081 287.535 11.48C280.809 12.5323 273.943 12.6681 267.159 12.0405C253.725 10.7889 240.743 6.61071 228.621 0.819949C223.968 -1.40303 219.458 -3.89239 215.005 -6.49345C224.671 -3.15988 235.557 -4.09882 245.741 -4.86577ZM212.685 -30.2164C218.855 -31.498 225.157 -32.1417 231.46 -32.2857C244.077 -32.5767 256.662 -30.8608 268.981 -28.2389C274.896 -26.9836 280.723 -25.4387 286.58 -23.974C263.396 -18.9098 238.686 -15.4947 215.393 -21.3613C209.301 -22.8901 203.152 -24.8557 196.816 -24.4476C201.567 -27.5386 207.161 -29.0812 212.67 -30.2251L212.685 -30.2164ZM164.654 47.4305C168.248 39.6745 172.227 32.0925 176.604 24.7419C181.097 17.1679 186.423 10.0598 190.575 2.28907C192.498 -1.30272 194.085 -5.11707 195.07 -9.05184C195.463 3.38187 193.673 15.8144 189.964 27.779C184.826 44.3482 176.161 59.6613 165.734 73.4564C160.426 80.4869 154.634 87.1364 148.556 93.5147C152.402 77.689 157.832 62.2064 164.665 47.4277L164.654 47.4305Z" fill="#7F694F"/>
<path d="M1536.5 159.095C1521.71 167.796 1505.55 173.431 1488.44 175.088C1471.46 176.722 1454.11 174.674 1438.08 168.814C1422.14 162.99 1408.67 152.869 1394.6 143.682C1380.53 134.508 1365.87 127.086 1348.77 126.364C1329.63 125.559 1310.79 131.276 1291.63 129.915C1274.92 128.719 1259.01 121.013 1247.71 108.631C1237.79 97.7517 1232.93 82.0784 1220.23 73.8156C1212.93 69.0686 1204.16 68.5714 1195.71 69.3054C1186.67 70.0867 1177.71 71.6966 1168.67 72.6437C1151.41 74.443 1133.36 73.2947 1119.87 61.1255C1108.58 50.9568 1102.46 36.0885 1098.77 21.67C1097.8 17.8701 1097.02 14.0346 1096.36 10.1636C1096.28 9.76116 1095.65 9.78483 1095.7 10.1992C1098.03 24.9846 1101.91 40.1607 1110.37 52.7088C1114.42 58.7105 1119.52 63.9902 1125.67 67.873C1132.89 72.4306 1141.23 74.6324 1149.69 75.2953C1158.6 75.9938 1167.57 75.1414 1176.42 73.9458C1185.66 72.7028 1195.07 70.6431 1204.44 70.9982C1213.5 71.3533 1221 75.1888 1226.86 82.0192C1231.93 87.95 1235.62 94.9224 1239.93 101.386C1248.8 114.703 1261.86 124.683 1277.23 129.323C1295.54 134.84 1314.36 130.779 1332.9 128.968C1342.62 128.021 1352.49 127.784 1362.06 130.069C1370.34 132.046 1378.11 135.716 1385.45 139.989C1400.15 148.536 1413.34 159.604 1428.82 166.837C1459.36 181.09 1496.28 180.889 1526.85 166.79C1530.59 165.062 1534.19 163.132 1537.67 160.93C1538.85 160.184 1537.71 158.397 1536.51 159.107L1536.5 159.095Z" fill="#D3B379"/>
<path d="M1524.91 130.471C1507.33 133.111 1489.7 136.473 1471.84 134.828C1455.95 133.36 1441.25 128.009 1429.07 117.58C1423.6 112.892 1418.53 107.731 1412.56 103.671C1406.45 99.5155 1399.64 97.1125 1392.24 96.7218C1375.89 95.8577 1360.58 103.268 1344.82 106.334C1330.47 109.128 1314.6 109.353 1301.28 102.558C1287.89 95.7274 1280.91 82.2915 1271.16 71.5546C1266.34 66.2276 1260.69 61.8594 1254.06 59.0065C1247.66 56.2365 1240.74 54.887 1233.8 54.3779C1218.63 53.277 1203.77 56.3312 1188.83 58.4975C1172.91 60.8059 1155.78 62.2619 1140.66 55.5854C1127.58 49.8085 1117.66 37.9352 1113.54 24.3217C1112.51 20.9124 1111.91 17.4203 1111.7 13.8571C1111.67 13.4783 1111.09 13.502 1111.11 13.8926C1111.63 27.589 1117.78 40.6106 1128.18 49.5836C1139.91 59.7168 1155.36 62.6407 1170.47 62.1554C1186.44 61.6464 1202.03 57.7636 1217.92 56.5443C1232.85 55.396 1249.02 56.4377 1261.64 65.3753C1273.72 73.934 1280.11 87.9973 1291.1 97.6925C1302 107.317 1316.6 110.525 1330.83 109.98C1338.12 109.696 1345.39 108.5 1352.46 106.713C1360.74 104.618 1368.89 101.871 1377.28 100.202C1385.93 98.4857 1395.11 97.9885 1403.49 101.197C1410.45 103.86 1416.19 108.737 1421.69 113.626C1427.29 118.598 1432.81 123.629 1439.36 127.346C1446.08 131.158 1453.49 133.739 1461.04 135.325C1477.95 138.888 1495.37 137.361 1512.3 134.816C1516.65 134.165 1520.98 133.431 1525.3 132.626C1526.52 132.401 1526.14 130.294 1524.91 130.483V130.471Z" fill="#D3B379"/>
<path d="M1536.67 159.221C1551.45 167.921 1567.61 173.556 1584.73 175.213C1601.71 176.847 1619.06 174.799 1635.09 168.939C1651.02 163.115 1664.49 152.994 1678.57 143.808C1692.63 134.633 1707.3 127.211 1724.39 126.489C1743.54 125.684 1762.38 131.402 1781.53 130.04C1798.25 128.845 1814.16 121.138 1825.45 108.756C1835.37 97.877 1840.24 82.2037 1852.94 73.9409C1860.23 69.1939 1869 68.6968 1877.46 69.4307C1886.5 70.212 1895.46 71.8219 1904.49 72.769C1921.75 74.5683 1939.81 73.42 1953.3 61.2508C1964.58 51.0821 1970.7 36.2138 1974.4 21.7953C1975.37 17.9954 1976.15 14.1599 1976.81 10.2889C1976.88 9.88646 1977.52 9.91014 1977.46 10.3245C1975.14 25.1099 1971.26 40.286 1962.8 52.8341C1958.75 58.8358 1953.64 64.1155 1947.5 67.9983C1940.28 72.5559 1931.93 74.7577 1923.48 75.4206C1914.57 76.1191 1905.6 75.2667 1896.75 74.0711C1887.51 72.8281 1878.1 70.7684 1868.73 71.1235C1859.66 71.4786 1852.17 75.3141 1846.31 82.1445C1841.23 88.0753 1837.55 95.0477 1833.24 101.511C1824.36 114.829 1811.31 124.808 1795.94 129.448C1777.63 134.965 1758.81 130.905 1740.27 129.093C1730.55 128.146 1720.68 127.91 1711.11 130.194C1702.83 132.171 1695.06 135.841 1687.72 140.114C1673.02 148.661 1659.83 159.73 1644.35 166.963C1613.8 181.215 1576.88 181.014 1546.32 166.915C1542.58 165.187 1538.98 163.257 1535.5 161.055C1534.31 160.31 1535.46 158.522 1536.66 159.232L1536.67 159.221Z" fill="#D3B379"/>
<path d="M1523.26 130.597C1540.84 133.237 1558.46 136.599 1576.33 134.953C1592.21 133.485 1606.92 128.134 1619.1 117.705C1624.57 113.018 1629.63 107.856 1635.61 103.796C1641.72 99.6408 1648.53 97.2378 1655.92 96.8471C1672.27 95.983 1687.59 103.393 1703.35 106.459C1717.69 109.253 1733.57 109.478 1746.89 102.683C1760.28 95.8527 1767.26 82.4168 1777 71.6799C1781.83 66.3529 1787.48 61.9848 1794.11 59.1318C1800.51 56.3618 1807.43 55.0123 1814.36 54.5032C1829.54 53.4023 1844.39 56.4565 1859.33 58.6228C1875.26 60.9312 1892.39 62.3872 1907.5 55.7107C1920.58 49.9339 1930.5 38.0605 1934.62 24.447C1935.65 21.0377 1936.26 17.5456 1936.47 13.9824C1936.49 13.6036 1937.07 13.6273 1937.06 14.0179C1936.54 27.7143 1930.38 40.7359 1919.99 49.7089C1908.26 59.8421 1892.81 62.7661 1877.69 62.2807C1861.73 61.7717 1846.14 57.8889 1830.25 56.6696C1815.32 55.5213 1799.15 56.563 1786.53 65.5006C1774.45 74.0593 1768.05 88.1227 1757.07 97.8178C1746.16 107.442 1731.57 110.65 1717.34 110.105C1710.05 109.821 1702.78 108.626 1695.71 106.838C1687.43 104.743 1679.28 101.997 1670.89 100.327C1662.23 98.611 1653.06 98.1138 1644.68 101.322C1637.72 103.985 1631.98 108.863 1626.47 113.752C1620.87 118.723 1615.36 123.754 1608.81 127.472C1602.09 131.283 1594.68 133.864 1587.12 135.45C1570.22 139.013 1552.79 137.486 1535.87 134.941C1531.52 134.29 1527.19 133.556 1522.87 132.751C1521.65 132.526 1522.03 130.419 1523.26 130.609V130.597Z" fill="#D3B379"/>
<path d="M763.054 -23.6831C743.581 1.44858 717.254 20.2352 686.392 28.498C678.52 30.6051 670.482 31.931 662.362 32.5821C652.844 33.3515 643.267 33.4225 633.773 34.4287C617.97 36.1216 603.469 41.2355 590.127 49.8889C563.717 67.0064 544.481 92.7537 521.752 114.085C497.047 137.264 468.292 157.175 435.727 167.403C403.871 177.406 367.943 177.43 337.153 163.686C333.436 162.029 329.825 160.146 326.31 158.087C326.061 157.945 325.872 158.335 326.108 158.489C354.649 176.151 389.441 179.596 421.888 172.777C455.141 165.793 485.173 147.953 510.849 126.172C523.492 115.447 534.975 103.573 546.375 91.5581C557.301 80.0399 568.298 68.4625 580.799 58.6371C593.051 49.0129 606.866 41.2 622.208 37.8617C640.604 33.8605 659.698 36.1571 678.201 32.807C708.884 27.2432 738.23 10.6466 758.165 -13.4434C760.544 -16.32 762.675 -19.3978 764.735 -22.4993C765.374 -23.47 763.753 -24.5709 763.042 -23.6594L763.054 -23.6831Z" fill="#BC825B"/>
<path d="M-161.219 352.093C-131.887 339.827 -106.899 319.293 -90.8935 291.643C-86.8113 284.59 -83.4405 277.173 -80.6995 269.501C-77.481 260.512 -74.9214 251.283 -71.4804 242.377C-65.7353 227.558 -57.0255 214.886 -45.1998 204.255C-21.802 183.206 8.06251 171.329 34.5719 154.931C63.3786 137.105 90.0835 114.519 108.43 85.7348C126.374 57.5775 135.742 22.8925 130.48 -10.4126C129.847 -14.4329 128.969 -18.4087 127.894 -22.3393C127.822 -22.6163 128.248 -22.6975 128.335 -22.4289C137.966 9.7237 132.242 44.2136 117.219 73.7706C101.826 104.062 76.7885 128.42 49.0781 147.547C35.4337 156.965 20.9824 164.965 6.41539 172.847C-7.54835 180.401 -21.5877 188.008 -34.3264 197.523C-46.8062 206.85 -57.9435 218.157 -65.1573 232.103C-73.8057 248.825 -76.5548 267.859 -84.6022 284.854C-97.9554 313.034 -121.614 337.053 -150.06 350.036C-153.456 351.585 -156.982 352.842 -160.513 354.024C-161.616 354.389 -162.258 352.537 -161.193 352.088L-161.219 352.093Z" fill="#BC825B"/>
</g>
<defs>
<clipPath id="clip0_2016_248">
<rect width="1920" height="728" fill="white"/>
</clipPath>
</defs>
</svg>
